<?xml version="1.0" encoding="utf-8" standalone="no"?>
<!DOCTYPE svg PUBLIC "-//W3C//DTD SVG 1.1//EN"
  "http://www.w3.org/Graphics/SVG/1.1/DTD/svg11.dtd">
<svg xmlns:xlink="http://www.w3.org/1999/xlink" width="720pt" height="360pt" viewBox="0 0 720 360" xmlns="http://www.w3.org/2000/svg" version="1.1">
 <metadata>
  <rdf:RDF xmlns:dc="http://purl.org/dc/elements/1.1/" xmlns:cc="http://creativecommons.org/ns#" xmlns:rdf="http://www.w3.org/1999/02/22-rdf-syntax-ns#">
   <cc:Work>
    <dc:type rdf:resource="http://purl.org/dc/dcmitype/StillImage"/>
    <dc:date>2026-06-23T10:11:58.397412</dc:date>
    <dc:format>image/svg+xml</dc:format>
    <dc:creator>
     <cc:Agent>
      <dc:title>Matplotlib v3.11.0, https://matplotlib.org/</dc:title>
     </cc:Agent>
    </dc:creator>
   </cc:Work>
  </rdf:RDF>
 </metadata>
 <defs>
  <style type="text/css">*{stroke-linejoin: round; stroke-linecap: butt}</style>
 </defs>
 <g id="figure_1">
  <g id="patch_1">
   <path d="M 0 360 
L 720 360 
L 720 0 
L 0 0 
z
" style="fill: #ffffff"/>
  </g>
  <g id="axes_1">
   <g id="patch_2">
    <path d="M 49.721953 321.558047 
L 709.2 321.558047 
L 709.2 26.88 
L 49.721953 26.88 
z
" style="fill: #ffffff"/>
   </g>
   <g id="matplotlib.axis_1">
    <g id="xtick_1">
     <g id="line2d_1">
      <defs>
       <path id="m6586fe0e6c" d="M 0 0 
L 0 3.5 
" style="stroke: #000000; stroke-width: 0.8"/>
      </defs>
      <g>
       <use xlink:href="#m6586fe0e6c" x="96.827528" y="321.558047" style="stroke: #000000; stroke-width: 0.8"/>
      </g>
     </g>
     <g id="text_1">
      <!-- GP -->
      <g transform="translate(90.465028 336.556094) scale(0.1 -0.1)">
       <defs>
        <path id="MalgunGothic-2a" d="M 4022 316 
Q 3334 -78 2491 -78 
Q 1525 -78 915 558 
Q 306 1194 306 2238 
Q 306 3303 979 3989 
Q 1653 4675 2681 4675 
Q 3453 4675 3938 4428 
L 3938 3856 
Q 3381 4209 2619 4209 
Q 1838 4209 1338 3671 
Q 838 3134 838 2278 
Q 838 1391 1300 887 
Q 1763 384 2563 384 
Q 3128 384 3516 606 
L 3516 1922 
L 2503 1922 
L 2503 2384 
L 4022 2384 
L 4022 316 
z
" transform="scale(0.015625)"/>
        <path id="MalgunGothic-33" d="M 1113 1747 
L 1113 0 
L 609 0 
L 609 4600 
L 1850 4600 
Q 2575 4600 2979 4240 
Q 3384 3881 3384 3231 
Q 3384 2559 2909 2140 
Q 2434 1722 1728 1747 
L 1113 1747 
z
M 1113 4131 
L 1113 2219 
L 1691 2219 
Q 2256 2219 2554 2475 
Q 2853 2731 2853 3206 
Q 2853 4131 1759 4131 
L 1113 4131 
z
" transform="scale(0.015625)"/>
       </defs>
       <use xlink:href="#MalgunGothic-2a"/>
       <use xlink:href="#MalgunGothic-33" transform="translate(70.171875 0)"/>
      </g>
      <!-- (n=5) -->
      <g transform="translate(84.632997 346.556094) scale(0.1 -0.1)">
       <defs>
        <path id="MalgunGothic-b" d="M 1438 -1044 
Q 447 88 447 1753 
Q 447 3431 1438 4600 
L 1888 4600 
Q 878 3372 878 1759 
Q 878 153 1881 -1044 
L 1438 -1044 
z
" transform="scale(0.015625)"/>
        <path id="MalgunGothic-51" d="M 3238 0 
L 2741 0 
L 2741 1875 
Q 2741 2941 1963 2941 
Q 1563 2941 1298 2639 
Q 1034 2338 1034 1872 
L 1034 0 
L 538 0 
L 538 3284 
L 1034 3284 
L 1034 2734 
L 1047 2734 
Q 1416 3359 2125 3359 
Q 2666 3359 2952 3012 
Q 3238 2666 3238 2006 
L 3238 0 
z
" transform="scale(0.015625)"/>
        <path id="MalgunGothic-20" d="M 3750 2397 
L 744 2397 
L 744 2803 
L 3750 2803 
L 3750 2397 
z
M 3750 1031 
L 744 1031 
L 744 1441 
L 3750 1441 
L 3750 1031 
z
" transform="scale(0.015625)"/>
        <path id="MalgunGothic-18" d="M 3072 1403 
Q 3072 722 2636 322 
Q 2200 -78 1469 -78 
Q 828 -78 516 113 
L 516 650 
Q 994 344 1475 344 
Q 1969 344 2270 630 
Q 2572 916 2572 1372 
Q 2572 1838 2265 2092 
Q 1959 2347 1381 2347 
Q 994 2347 603 2300 
L 759 4600 
L 2869 4600 
L 2869 4147 
L 1206 4147 
L 1106 2763 
Q 1347 2784 1547 2784 
Q 2263 2784 2667 2414 
Q 3072 2044 3072 1403 
z
" transform="scale(0.015625)"/>
        <path id="MalgunGothic-c" d="M 81 -1044 
Q 1081 150 1081 1759 
Q 1081 3378 72 4600 
L 525 4600 
Q 1522 3431 1522 1753 
Q 1522 88 525 -1044 
L 81 -1044 
z
" transform="scale(0.015625)"/>
       </defs>
       <use xlink:href="#MalgunGothic-b"/>
       <use xlink:href="#MalgunGothic-51" transform="translate(30.46875 0)"/>
       <use xlink:href="#MalgunGothic-20" transform="translate(88.28125 0)"/>
       <use xlink:href="#MalgunGothic-18" transform="translate(158.34375 0)"/>
       <use xlink:href="#MalgunGothic-c" transform="translate(213.421875 0)"/>
      </g>
     </g>
    </g>
    <g id="xtick_2">
     <g id="line2d_2">
      <g>
       <use xlink:href="#m6586fe0e6c" x="191.038677" y="321.558047" style="stroke: #000000; stroke-width: 0.8"/>
      </g>
     </g>
     <g id="text_2">
      <!-- NSGA -->
      <g transform="translate(177.698052 336.556094) scale(0.1 -0.1)">
       <defs>
        <path id="MalgunGothic-31" d="M 4288 0 
L 3653 0 
L 1253 3713 
Q 1178 3828 1109 4000 
L 1094 4000 
Q 1116 3822 1116 3372 
L 1116 0 
L 609 0 
L 609 4600 
L 1278 4600 
L 3613 938 
Q 3775 684 3797 634 
L 3809 634 
Q 3775 863 3775 1316 
L 3775 4600 
L 4288 4600 
L 4288 0 
z
" transform="scale(0.015625)"/>
        <path id="MalgunGothic-36" d="M 394 797 
Q 606 613 964 500 
Q 1322 388 1625 388 
Q 2628 388 2628 1116 
Q 2628 1325 2523 1484 
Q 2419 1644 2250 1756 
Q 2081 1869 1547 2144 
Q 903 2475 651 2754 
Q 400 3034 400 3456 
Q 400 4019 858 4347 
Q 1316 4675 1988 4675 
Q 2669 4675 2963 4513 
L 2963 3928 
Q 2563 4206 1922 4206 
Q 1484 4206 1207 4018 
Q 931 3831 931 3500 
Q 931 3200 1126 3011 
Q 1322 2822 1938 2522 
Q 2656 2163 2906 1844 
Q 3156 1525 3156 1153 
Q 3156 556 2725 239 
Q 2294 -78 1531 -78 
Q 1291 -78 927 -1 
Q 563 75 394 188 
L 394 797 
z
" transform="scale(0.015625)"/>
        <path id="MalgunGothic-24" d="M 4134 0 
L 3575 0 
L 3075 1306 
L 1103 1306 
L 638 0 
L 75 0 
L 1844 4600 
L 2356 4600 
L 4134 0 
z
M 2903 1769 
L 2169 3756 
Q 2128 3866 2100 4059 
L 2084 4059 
Q 2050 3844 2009 3756 
L 1281 1769 
L 2903 1769 
z
" transform="scale(0.015625)"/>
       </defs>
       <use xlink:href="#MalgunGothic-31"/>
       <use xlink:href="#MalgunGothic-36" transform="translate(76.515625 0)"/>
       <use xlink:href="#MalgunGothic-2a" transform="translate(130.8125 0)"/>
       <use xlink:href="#MalgunGothic-24" transform="translate(200.984375 0)"/>
      </g>
      <!-- (n=30) -->
      <g transform="translate(176.09024 346.556094) scale(0.1 -0.1)">
       <defs>
        <path id="MalgunGothic-16" d="M 416 719 
Q 891 344 1478 344 
Q 1959 344 2254 587 
Q 2550 831 2550 1247 
Q 2550 2169 1253 2169 
L 872 2169 
L 872 2591 
L 1234 2591 
Q 2388 2591 2388 3453 
Q 2388 4250 1509 4250 
Q 1022 4250 594 3916 
L 594 4413 
Q 1031 4675 1634 4675 
Q 2184 4675 2539 4372 
Q 2894 4069 2894 3581 
Q 2894 2678 1972 2409 
L 1972 2400 
Q 2469 2356 2764 2053 
Q 3059 1750 3059 1300 
Q 3059 672 2604 297 
Q 2150 -78 1450 -78 
Q 806 -78 416 169 
L 416 719 
z
" transform="scale(0.015625)"/>
        <path id="MalgunGothic-13" d="M 278 2206 
Q 278 3425 675 4050 
Q 1072 4675 1819 4675 
Q 3253 4675 3253 2319 
Q 3253 1156 2854 539 
Q 2456 -78 1716 -78 
Q 1016 -78 647 520 
Q 278 1119 278 2206 
z
M 784 2231 
Q 784 344 1769 344 
Q 2747 344 2747 2259 
Q 2747 4250 1794 4250 
Q 784 4250 784 2231 
z
" transform="scale(0.015625)"/>
       </defs>
       <use xlink:href="#MalgunGothic-b"/>
       <use xlink:href="#MalgunGothic-51" transform="translate(30.46875 0)"/>
       <use xlink:href="#MalgunGothic-20" transform="translate(88.28125 0)"/>
       <use xlink:href="#MalgunGothic-16" transform="translate(158.34375 0)"/>
       <use xlink:href="#MalgunGothic-13" transform="translate(213.421875 0)"/>
       <use xlink:href="#MalgunGothic-c" transform="translate(268.5 0)"/>
      </g>
     </g>
    </g>
    <g id="xtick_3">
     <g id="line2d_3">
      <g>
       <use xlink:href="#m6586fe0e6c" x="285.249827" y="321.558047" style="stroke: #000000; stroke-width: 0.8"/>
      </g>
     </g>
     <g id="text_3">
      <!-- CMA-ES -->
      <g transform="translate(266.848265 336.556094) scale(0.1 -0.1)">
       <defs>
        <path id="MalgunGothic-26" d="M 3725 197 
Q 3216 -78 2459 -78 
Q 1488 -78 897 561 
Q 306 1200 306 2213 
Q 306 3281 959 3978 
Q 1613 4675 2644 4675 
Q 3297 4675 3725 4484 
L 3725 3941 
Q 3234 4213 2634 4213 
Q 1813 4213 1325 3659 
Q 838 3106 838 2241 
Q 838 1413 1297 897 
Q 1756 381 2522 381 
Q 3216 381 3725 688 
L 3725 197 
z
" transform="scale(0.015625)"/>
        <path id="MalgunGothic-30" d="M 4756 0 
L 4756 3106 
Q 4756 3466 4803 3994 
L 4788 3994 
Q 4713 3684 4653 3559 
L 3050 0 
L 2822 0 
L 1222 3534 
Q 1159 3669 1091 3994 
L 1075 3994 
Q 1100 3822 1100 3116 
L 1100 0 
L 609 0 
L 609 4600 
L 1269 4600 
L 2706 1359 
Q 2881 966 2922 816 
L 2941 816 
Q 2988 944 3166 1375 
L 4638 4600 
L 5259 4600 
L 5259 0 
L 4756 0 
z
" transform="scale(0.015625)"/>
        <path id="MalgunGothic-10" d="M 2213 1634 
L 463 1634 
L 463 2031 
L 2213 2031 
L 2213 1634 
z
" transform="scale(0.015625)"/>
        <path id="MalgunGothic-28" d="M 3025 0 
L 609 0 
L 609 4600 
L 2922 4600 
L 2922 4134 
L 1113 4134 
L 1113 2572 
L 2784 2572 
L 2784 2109 
L 1113 2109 
L 1113 463 
L 3025 463 
L 3025 0 
z
" transform="scale(0.015625)"/>
       </defs>
       <use xlink:href="#MalgunGothic-26"/>
       <use xlink:href="#MalgunGothic-30" transform="translate(63.484375 0)"/>
       <use xlink:href="#MalgunGothic-24" transform="translate(155.1875 0)"/>
       <use xlink:href="#MalgunGothic-10" transform="translate(221.015625 0)"/>
       <use xlink:href="#MalgunGothic-28" transform="translate(262.03125 0)"/>
       <use xlink:href="#MalgunGothic-36" transform="translate(313.734375 0)"/>
      </g>
      <!-- (n=30) -->
      <g transform="translate(270.30139 346.556094) scale(0.1 -0.1)">
       <use xlink:href="#MalgunGothic-b"/>
       <use xlink:href="#MalgunGothic-51" transform="translate(30.46875 0)"/>
       <use xlink:href="#MalgunGothic-20" transform="translate(88.28125 0)"/>
       <use xlink:href="#MalgunGothic-16" transform="translate(158.34375 0)"/>
       <use xlink:href="#MalgunGothic-13" transform="translate(213.421875 0)"/>
       <use xlink:href="#MalgunGothic-c" transform="translate(268.5 0)"/>
      </g>
     </g>
    </g>
    <g id="xtick_4">
     <g id="line2d_4">
      <g>
       <use xlink:href="#m6586fe0e6c" x="379.460977" y="321.558047" style="stroke: #000000; stroke-width: 0.8"/>
      </g>
     </g>
     <g id="text_4">
      <!-- 어플삭제단 -->
      <g transform="translate(354.460977 337.098672) scale(0.1 -0.1)">
       <defs>
        <path id="MalgunGothic-7ed" d="M 3781 2822 
Q 3731 1925 3314 1445 
Q 2897 966 2259 966 
Q 1572 966 1150 1514 
Q 728 2063 728 3016 
Q 728 3978 1145 4520 
Q 1563 5063 2259 5063 
Q 2900 5063 3312 4583 
Q 3725 4103 3775 3238 
L 4891 3238 
L 4891 5466 
L 5356 5466 
L 5356 -563 
L 4891 -563 
L 4891 2822 
L 3781 2822 
z
M 2259 4647 
Q 1775 4647 1483 4206 
Q 1191 3766 1191 3016 
Q 1191 2269 1487 1825 
Q 1784 1381 2259 1381 
Q 2728 1381 3028 1831 
Q 3328 2281 3328 3016 
Q 3328 3766 3034 4206 
Q 2741 4647 2259 4647 
z
" transform="scale(0.015625)"/>
        <path id="MalgunGothic-b10" d="M 1088 4928 
L 1088 5331 
L 5313 5331 
L 5313 4928 
L 1088 4928 
z
M 1013 3366 
L 1013 3769 
L 1913 3769 
L 1856 4709 
L 2316 4709 
L 2381 3769 
L 4019 3769 
L 4084 4709 
L 4544 4709 
L 4488 3769 
L 5388 3769 
L 5388 3366 
L 1013 3366 
z
M 403 2413 
L 403 2828 
L 5997 2828 
L 5997 2413 
L 403 2413 
z
M 1325 -416 
L 1325 947 
L 4616 947 
L 4616 1478 
L 1325 1478 
L 1325 1888 
L 5075 1888 
L 5075 544 
L 1784 544 
L 1784 0 
L 5234 0 
L 5234 -416 
L 1325 -416 
z
" transform="scale(0.015625)"/>
        <path id="MalgunGothic-6cd" d="M 5125 3391 
L 5125 2003 
L 4659 2003 
L 4659 5466 
L 5125 5466 
L 5125 3816 
L 6034 3816 
L 6034 3391 
L 5125 3391 
z
M 3603 2350 
Q 3213 2559 2783 2962 
Q 2353 3366 2188 3713 
Q 2022 3322 1609 2883 
Q 1197 2444 750 2194 
L 409 2516 
Q 1075 2838 1514 3431 
Q 1953 4025 1953 4659 
L 1953 5294 
L 2400 5294 
L 2400 4659 
Q 2400 4056 2845 3503 
Q 3291 2950 3909 2688 
L 3603 2350 
z
M 4659 -563 
L 4659 1253 
L 1259 1253 
L 1259 1678 
L 5125 1678 
L 5125 -563 
L 4659 -563 
z
" transform="scale(0.015625)"/>
        <path id="MalgunGothic-8bf" d="M 5038 -563 
L 5038 5466 
L 5503 5466 
L 5503 -563 
L 5038 -563 
z
M 3944 -378 
L 3944 2975 
L 2894 2975 
L 2894 3391 
L 3944 3391 
L 3944 5344 
L 4403 5344 
L 4403 -378 
L 3944 -378 
z
M 3116 850 
Q 2306 1647 1984 2734 
Q 1881 2291 1529 1722 
Q 1178 1153 775 769 
L 409 1063 
Q 941 1438 1350 2248 
Q 1759 3059 1759 3834 
L 1759 4525 
L 634 4525 
L 634 4941 
L 3359 4941 
L 3359 4525 
L 2222 4525 
L 2222 3828 
Q 2222 3075 2589 2328 
Q 2956 1581 3469 1153 
L 3116 850 
z
" transform="scale(0.015625)"/>
        <path id="MalgunGothic-42f" d="M 5125 3169 
L 5125 1063 
L 4659 1063 
L 4659 5466 
L 5125 5466 
L 5125 3584 
L 6034 3584 
L 6034 3169 
L 5125 3169 
z
M 3903 2363 
Q 3306 2291 850 2291 
L 850 5081 
L 3688 5081 
L 3688 4666 
L 1319 4666 
L 1319 2706 
Q 3244 2706 3872 2766 
L 3903 2363 
z
M 1459 -378 
L 1459 1581 
L 1925 1581 
L 1925 38 
L 5294 38 
L 5294 -378 
L 1459 -378 
z
" transform="scale(0.015625)"/>
       </defs>
       <use xlink:href="#MalgunGothic-7ed"/>
       <use xlink:href="#MalgunGothic-b10" transform="translate(100 0)"/>
       <use xlink:href="#MalgunGothic-6cd" transform="translate(200 0)"/>
       <use xlink:href="#MalgunGothic-8bf" transform="translate(300 0)"/>
       <use xlink:href="#MalgunGothic-42f" transform="translate(400 0)"/>
      </g>
      <!-- (n=1) -->
      <g transform="translate(367.266445 347.098672) scale(0.1 -0.1)">
       <defs>
        <path id="MalgunGothic-14" d="M 2231 0 
L 1734 0 
L 1734 3972 
Q 1591 3828 1266 3661 
Q 941 3494 672 3428 
L 672 3959 
Q 1016 4056 1409 4275 
Q 1803 4494 2031 4700 
L 2231 4700 
L 2231 0 
z
" transform="scale(0.015625)"/>
       </defs>
       <use xlink:href="#MalgunGothic-b"/>
       <use xlink:href="#MalgunGothic-51" transform="translate(30.46875 0)"/>
       <use xlink:href="#MalgunGothic-20" transform="translate(88.28125 0)"/>
       <use xlink:href="#MalgunGothic-14" transform="translate(158.34375 0)"/>
       <use xlink:href="#MalgunGothic-c" transform="translate(213.421875 0)"/>
      </g>
     </g>
    </g>
    <g id="xtick_5">
     <g id="line2d_5">
      <g>
       <use xlink:href="#m6586fe0e6c" x="473.672126" y="321.558047" style="stroke: #000000; stroke-width: 0.8"/>
      </g>
     </g>
     <g id="text_5">
      <!-- 성실이 -->
      <g transform="translate(458.672126 337.098672) scale(0.1 -0.1)">
       <defs>
        <path id="MalgunGothic-6fd" d="M 4947 1984 
L 4947 3781 
L 3541 3781 
L 3541 4200 
L 4947 4200 
L 4947 5466 
L 5416 5466 
L 5416 1984 
L 4947 1984 
z
M 3653 2328 
Q 3244 2550 2831 2950 
Q 2419 3350 2253 3700 
Q 2075 3303 1659 2858 
Q 1244 2413 819 2175 
L 488 2497 
Q 1134 2806 1571 3393 
Q 2009 3981 2009 4628 
L 2009 5269 
L 2463 5269 
L 2463 4628 
Q 2463 4025 2916 3472 
Q 3369 2919 3969 2669 
L 3653 2328 
z
M 3566 -475 
Q 2622 -475 2108 -148 
Q 1594 178 1594 697 
Q 1594 1216 2106 1539 
Q 2619 1863 3566 1863 
Q 4513 1863 5025 1539 
Q 5538 1216 5538 697 
Q 5538 178 5023 -148 
Q 4509 -475 3566 -475 
z
M 3566 1466 
Q 2850 1466 2472 1248 
Q 2094 1031 2094 697 
Q 2094 359 2473 143 
Q 2853 -72 3566 -72 
Q 4275 -72 4656 142 
Q 5038 356 5038 697 
Q 5038 1034 4659 1250 
Q 4281 1466 3566 1466 
z
" transform="scale(0.015625)"/>
        <path id="MalgunGothic-768" d="M 4878 2450 
L 4878 5466 
L 5344 5466 
L 5344 2450 
L 4878 2450 
z
M 3653 2663 
Q 3266 2828 2845 3203 
Q 2425 3578 2241 3938 
Q 1884 3125 800 2509 
L 469 2822 
Q 1178 3159 1590 3681 
Q 2003 4203 2003 4813 
L 2003 5331 
L 2456 5331 
L 2456 4813 
Q 2456 4219 2907 3717 
Q 3359 3216 3969 3003 
L 3653 2663 
z
M 1631 -422 
L 1631 1069 
L 4884 1069 
L 4884 1716 
L 1631 1716 
L 1631 2131 
L 5344 2131 
L 5344 666 
L 2094 666 
L 2094 -6 
L 5509 -6 
L 5509 -422 
L 1631 -422 
z
" transform="scale(0.015625)"/>
        <path id="MalgunGothic-887" d="M 4947 -563 
L 4947 5466 
L 5416 5466 
L 5416 -563 
L 4947 -563 
z
M 2284 959 
Q 1597 959 1173 1514 
Q 750 2069 750 3016 
Q 750 3975 1169 4522 
Q 1588 5069 2284 5069 
Q 2978 5069 3403 4522 
Q 3828 3975 3828 3016 
Q 3828 2063 3401 1511 
Q 2975 959 2284 959 
z
M 2284 4653 
Q 1803 4653 1503 4204 
Q 1203 3756 1203 3016 
Q 1203 2278 1506 1826 
Q 1809 1375 2284 1375 
Q 2756 1375 3061 1828 
Q 3366 2281 3366 3016 
Q 3366 3759 3067 4206 
Q 2769 4653 2284 4653 
z
" transform="scale(0.015625)"/>
       </defs>
       <use xlink:href="#MalgunGothic-6fd"/>
       <use xlink:href="#MalgunGothic-768" transform="translate(100 0)"/>
       <use xlink:href="#MalgunGothic-887" transform="translate(200 0)"/>
      </g>
      <!-- (n=1) -->
      <g transform="translate(461.477595 347.098672) scale(0.1 -0.1)">
       <use xlink:href="#MalgunGothic-b"/>
       <use xlink:href="#MalgunGothic-51" transform="translate(30.46875 0)"/>
       <use xlink:href="#MalgunGothic-20" transform="translate(88.28125 0)"/>
       <use xlink:href="#MalgunGothic-14" transform="translate(158.34375 0)"/>
       <use xlink:href="#MalgunGothic-c" transform="translate(213.421875 0)"/>
      </g>
     </g>
    </g>
    <g id="xtick_6">
     <g id="line2d_6">
      <g>
       <use xlink:href="#m6586fe0e6c" x="567.883276" y="321.558047" style="stroke: #000000; stroke-width: 0.8"/>
      </g>
     </g>
     <g id="text_6">
      <!-- 저축왕 -->
      <g transform="translate(552.883276 337.176797) scale(0.1 -0.1)">
       <defs>
        <path id="MalgunGothic-8b5" d="M 4934 -563 
L 4934 2950 
L 3541 2950 
L 3541 3366 
L 4934 3366 
L 4934 5466 
L 5403 5466 
L 5403 -563 
L 4934 -563 
z
M 3744 909 
Q 2609 1819 2297 2859 
Q 2175 2388 1765 1805 
Q 1356 1222 856 825 
L 506 1147 
Q 1225 1641 1642 2427 
Q 2059 3213 2059 4019 
L 2059 4525 
L 750 4525 
L 750 4941 
L 3853 4941 
L 3853 4525 
L 2528 4525 
L 2528 4038 
Q 2528 3222 2958 2450 
Q 3388 1678 4063 1269 
L 3744 909 
z
" transform="scale(0.015625)"/>
        <path id="MalgunGothic-9b5" d="M 5466 3116 
Q 4794 3184 4103 3512 
Q 3413 3841 3206 4141 
Q 2972 3816 2308 3505 
Q 1644 3194 966 3122 
L 697 3547 
Q 1359 3547 2046 3836 
Q 2734 4125 2919 4538 
L 1056 4538 
L 1056 4953 
L 2969 4953 
L 2969 5516 
L 3444 5516 
L 3444 4953 
L 5344 4953 
L 5344 4538 
L 3481 4538 
Q 3669 4119 4353 3836 
Q 5038 3553 5703 3553 
L 5466 3116 
z
M 4609 -563 
L 4609 1075 
L 1197 1075 
L 1197 1491 
L 2963 1491 
L 2963 2222 
L 403 2222 
L 403 2644 
L 5997 2644 
L 5997 2222 
L 3438 2222 
L 3438 1491 
L 5075 1491 
L 5075 -563 
L 4609 -563 
z
" transform="scale(0.015625)"/>
        <path id="MalgunGothic-832" d="M 5203 3200 
L 5203 1722 
L 4738 1722 
L 4738 5466 
L 5203 5466 
L 5203 3616 
L 6113 3616 
L 6113 3200 
L 5203 3200 
z
M 4347 2181 
Q 3522 2134 2195 2104 
Q 869 2075 469 2075 
L 422 2491 
Q 1094 2491 2156 2516 
L 2156 3144 
Q 1550 3191 1206 3486 
Q 863 3781 863 4244 
Q 863 4747 1270 5051 
Q 1678 5356 2381 5356 
Q 3081 5356 3486 5053 
Q 3891 4750 3891 4244 
Q 3891 3791 3558 3494 
Q 3225 3197 2625 3144 
L 2625 2522 
Q 3894 2556 4319 2584 
L 4347 2181 
z
M 2381 4959 
Q 1897 4959 1608 4759 
Q 1319 4559 1319 4244 
Q 1319 3931 1608 3728 
Q 1897 3525 2381 3525 
Q 2859 3525 3148 3726 
Q 3438 3928 3438 4244 
Q 3438 4563 3150 4761 
Q 2863 4959 2381 4959 
z
M 3272 -519 
Q 2328 -519 1814 -223 
Q 1300 72 1300 575 
Q 1300 1072 1811 1367 
Q 2322 1663 3272 1663 
Q 4231 1663 4736 1369 
Q 5241 1075 5241 575 
Q 5241 72 4731 -223 
Q 4222 -519 3272 -519 
z
M 3272 1269 
Q 2556 1269 2173 1080 
Q 1791 891 1791 575 
Q 1791 263 2167 70 
Q 2544 -122 3272 -122 
Q 3994 -122 4372 68 
Q 4750 259 4750 575 
Q 4750 897 4367 1083 
Q 3984 1269 3272 1269 
z
" transform="scale(0.015625)"/>
       </defs>
       <use xlink:href="#MalgunGothic-8b5"/>
       <use xlink:href="#MalgunGothic-9b5" transform="translate(100 0)"/>
       <use xlink:href="#MalgunGothic-832" transform="translate(200 0)"/>
      </g>
      <!-- (n=1) -->
      <g transform="translate(555.688744 347.176797) scale(0.1 -0.1)">
       <use xlink:href="#MalgunGothic-b"/>
       <use xlink:href="#MalgunGothic-51" transform="translate(30.46875 0)"/>
       <use xlink:href="#MalgunGothic-20" transform="translate(88.28125 0)"/>
       <use xlink:href="#MalgunGothic-14" transform="translate(158.34375 0)"/>
       <use xlink:href="#MalgunGothic-c" transform="translate(213.421875 0)"/>
      </g>
     </g>
    </g>
    <g id="xtick_7">
     <g id="line2d_7">
      <g>
       <use xlink:href="#m6586fe0e6c" x="662.094425" y="321.558047" style="stroke: #000000; stroke-width: 0.8"/>
      </g>
     </g>
     <g id="text_7">
      <!-- 돼지저금통 -->
      <g transform="translate(637.094425 337.098672) scale(0.1 -0.1)">
       <defs>
        <path id="MalgunGothic-476" d="M 5063 -563 
L 5063 2431 
L 4359 2431 
L 4359 -378 
L 3897 -378 
L 3897 5344 
L 4359 5344 
L 4359 2847 
L 5063 2847 
L 5063 5466 
L 5528 5466 
L 5528 -563 
L 5063 -563 
z
M 750 4878 
L 3213 4878 
L 3213 4459 
L 1209 4459 
L 1209 2875 
L 3284 2875 
L 3284 2456 
L 2253 2456 
L 2253 1125 
Q 3200 1156 3559 1184 
L 3584 781 
Q 2050 691 391 691 
L 341 1100 
Q 947 1100 1784 1119 
L 1784 2456 
L 750 2456 
L 750 4878 
z
" transform="scale(0.015625)"/>
        <path id="MalgunGothic-90f" d="M 4884 -563 
L 4884 5466 
L 5350 5466 
L 5350 -563 
L 4884 -563 
z
M 3775 909 
Q 3228 1338 2822 1881 
Q 2416 2425 2297 2859 
Q 2178 2397 1756 1814 
Q 1334 1231 825 825 
L 475 1147 
Q 1191 1638 1625 2425 
Q 2059 3213 2059 4019 
L 2059 4525 
L 716 4525 
L 716 4941 
L 3884 4941 
L 3884 4525 
L 2528 4525 
L 2528 4038 
Q 2528 3238 2968 2459 
Q 3409 1681 4097 1269 
L 3775 909 
z
" transform="scale(0.015625)"/>
        <path id="MalgunGothic-316" d="M 403 2663 
L 403 3084 
L 4563 3084 
Q 4634 3803 4634 4819 
L 1338 4819 
L 1338 5234 
L 5100 5234 
Q 5100 4081 5019 3084 
L 5997 3084 
L 5997 2663 
L 403 2663 
z
M 1350 -416 
L 1350 1856 
L 5075 1856 
L 5075 -416 
L 1350 -416 
z
M 4616 1447 
L 1813 1447 
L 1813 0 
L 4616 0 
L 4616 1447 
z
" transform="scale(0.015625)"/>
        <path id="MalgunGothic-a7c" d="M 403 1978 
L 403 2394 
L 2969 2394 
L 2969 3016 
L 1331 3016 
L 1331 5331 
L 5088 5331 
L 5088 4916 
L 1797 4916 
L 1797 4378 
L 4984 4378 
L 4984 3969 
L 1797 3969 
L 1797 3425 
L 5166 3425 
L 5166 3016 
L 3438 3016 
L 3438 2394 
L 5997 2394 
L 5997 1978 
L 403 1978 
z
M 3200 -556 
Q 2241 -556 1737 -271 
Q 1234 13 1234 519 
Q 1234 1025 1737 1309 
Q 2241 1594 3200 1594 
Q 4159 1594 4662 1309 
Q 5166 1025 5166 519 
Q 5166 13 4662 -271 
Q 4159 -556 3200 -556 
z
M 3200 1197 
Q 1728 1197 1728 519 
Q 1728 -159 3200 -159 
Q 4672 -159 4672 519 
Q 4672 1197 3200 1197 
z
" transform="scale(0.015625)"/>
       </defs>
       <use xlink:href="#MalgunGothic-476"/>
       <use xlink:href="#MalgunGothic-90f" transform="translate(100 0)"/>
       <use xlink:href="#MalgunGothic-8b5" transform="translate(200 0)"/>
       <use xlink:href="#MalgunGothic-316" transform="translate(300 0)"/>
       <use xlink:href="#MalgunGothic-a7c" transform="translate(400 0)"/>
      </g>
      <!-- (n=1) -->
      <g transform="translate(649.899894 347.098672) scale(0.1 -0.1)">
       <use xlink:href="#MalgunGothic-b"/>
       <use xlink:href="#MalgunGothic-51" transform="translate(30.46875 0)"/>
       <use xlink:href="#MalgunGothic-20" transform="translate(88.28125 0)"/>
       <use xlink:href="#MalgunGothic-14" transform="translate(158.34375 0)"/>
       <use xlink:href="#MalgunGothic-c" transform="translate(213.421875 0)"/>
      </g>
     </g>
    </g>
   </g>
   <g id="matplotlib.axis_2">
    <g id="ytick_1">
     <g id="line2d_8">
      <path d="M 49.721953 308.16359 
L 709.2 308.16359 
" clip-path="url(#p8cf5203c36)" style="fill: none; stroke: #b0b0b0; stroke-opacity: 0.25; stroke-width: 0.8; stroke-linecap: square"/>
     </g>
     <g id="line2d_9">
      <defs>
       <path id="m9ead651f81" d="M 0 0 
L -3.5 0 
" style="stroke: #000000; stroke-width: 0.8"/>
      </defs>
      <g>
       <use xlink:href="#m9ead651f81" x="49.721953" y="308.16359" style="stroke: #000000; stroke-width: 0.8"/>
      </g>
     </g>
     <g id="text_8">
      <!-- 100 -->
      <g transform="translate(26.198516 312.162614) scale(0.1 -0.1)">
       <use xlink:href="#MalgunGothic-14"/>
       <use xlink:href="#MalgunGothic-13" transform="translate(55.078125 0)"/>
       <use xlink:href="#MalgunGothic-13" transform="translate(110.15625 0)"/>
      </g>
     </g>
    </g>
    <g id="ytick_2">
     <g id="line2d_10">
      <path d="M 49.721953 267.289135 
L 709.2 267.289135 
" clip-path="url(#p8cf5203c36)" style="fill: none; stroke: #b0b0b0; stroke-opacity: 0.25; stroke-width: 0.8; stroke-linecap: square"/>
     </g>
     <g id="line2d_11">
      <g>
       <use xlink:href="#m9ead651f81" x="49.721953" y="267.289135" style="stroke: #000000; stroke-width: 0.8"/>
      </g>
     </g>
     <g id="text_9">
      <!-- 102 -->
      <g transform="translate(26.198516 271.288159) scale(0.1 -0.1)">
       <defs>
        <path id="MalgunGothic-15" d="M 2519 3372 
Q 2519 3784 2275 4018 
Q 2031 4253 1628 4253 
Q 1341 4253 1053 4104 
Q 766 3956 534 3697 
L 534 4234 
Q 981 4675 1691 4675 
Q 2281 4675 2642 4334 
Q 3003 3994 3003 3416 
Q 3003 2919 2772 2545 
Q 2541 2172 1984 1775 
Q 1459 1406 1254 1215 
Q 1050 1025 967 854 
Q 884 684 884 450 
L 3116 450 
L 3116 0 
L 356 0 
L 356 225 
Q 356 603 461 870 
Q 566 1138 811 1392 
Q 1056 1647 1597 2022 
Q 2091 2363 2305 2670 
Q 2519 2978 2519 3372 
z
" transform="scale(0.015625)"/>
       </defs>
       <use xlink:href="#MalgunGothic-14"/>
       <use xlink:href="#MalgunGothic-13" transform="translate(55.078125 0)"/>
       <use xlink:href="#MalgunGothic-15" transform="translate(110.15625 0)"/>
      </g>
     </g>
    </g>
    <g id="ytick_3">
     <g id="line2d_12">
      <path d="M 49.721953 226.41468 
L 709.2 226.41468 
" clip-path="url(#p8cf5203c36)" style="fill: none; stroke: #b0b0b0; stroke-opacity: 0.25; stroke-width: 0.8; stroke-linecap: square"/>
     </g>
     <g id="line2d_13">
      <g>
       <use xlink:href="#m9ead651f81" x="49.721953" y="226.41468" style="stroke: #000000; stroke-width: 0.8"/>
      </g>
     </g>
     <g id="text_10">
      <!-- 104 -->
      <g transform="translate(26.198516 230.413704) scale(0.1 -0.1)">
       <defs>
        <path id="MalgunGothic-17" d="M 2703 4600 
L 2703 1563 
L 3309 1563 
L 3309 1113 
L 2703 1113 
L 2703 0 
L 2213 0 
L 2213 1113 
L 50 1113 
L 50 1534 
Q 728 2297 1295 3109 
Q 1863 3922 2172 4600 
L 2703 4600 
z
M 625 1563 
L 2213 1563 
L 2213 3831 
Q 1613 2788 959 1981 
L 625 1563 
z
" transform="scale(0.015625)"/>
       </defs>
       <use xlink:href="#MalgunGothic-14"/>
       <use xlink:href="#MalgunGothic-13" transform="translate(55.078125 0)"/>
       <use xlink:href="#MalgunGothic-17" transform="translate(110.15625 0)"/>
      </g>
     </g>
    </g>
    <g id="ytick_4">
     <g id="line2d_14">
      <path d="M 49.721953 185.540226 
L 709.2 185.540226 
" clip-path="url(#p8cf5203c36)" style="fill: none; stroke: #b0b0b0; stroke-opacity: 0.25; stroke-width: 0.8; stroke-linecap: square"/>
     </g>
     <g id="line2d_15">
      <g>
       <use xlink:href="#m9ead651f81" x="49.721953" y="185.540226" style="stroke: #000000; stroke-width: 0.8"/>
      </g>
     </g>
     <g id="text_11">
      <!-- 106 -->
      <g transform="translate(26.198516 189.539249) scale(0.1 -0.1)">
       <defs>
        <path id="MalgunGothic-19" d="M 2981 4069 
Q 2619 4250 2228 4250 
Q 1591 4250 1228 3689 
Q 866 3128 869 2213 
L 884 2213 
Q 1203 2872 1938 2872 
Q 2547 2872 2903 2478 
Q 3259 2084 3259 1450 
Q 3259 797 2857 359 
Q 2456 -78 1825 -78 
Q 1116 -78 736 478 
Q 356 1034 356 2019 
Q 356 3181 847 3928 
Q 1338 4675 2222 4675 
Q 2700 4675 2981 4544 
L 2981 4069 
z
M 906 1506 
Q 906 1022 1165 683 
Q 1425 344 1844 344 
Q 2247 344 2498 645 
Q 2750 947 2750 1388 
Q 2750 1888 2509 2167 
Q 2269 2447 1838 2447 
Q 1444 2447 1175 2173 
Q 906 1900 906 1506 
z
" transform="scale(0.015625)"/>
       </defs>
       <use xlink:href="#MalgunGothic-14"/>
       <use xlink:href="#MalgunGothic-13" transform="translate(55.078125 0)"/>
       <use xlink:href="#MalgunGothic-19" transform="translate(110.15625 0)"/>
      </g>
     </g>
    </g>
    <g id="ytick_5">
     <g id="line2d_16">
      <path d="M 49.721953 144.665771 
L 709.2 144.665771 
" clip-path="url(#p8cf5203c36)" style="fill: none; stroke: #b0b0b0; stroke-opacity: 0.25; stroke-width: 0.8; stroke-linecap: square"/>
     </g>
     <g id="line2d_17">
      <g>
       <use xlink:href="#m9ead651f81" x="49.721953" y="144.665771" style="stroke: #000000; stroke-width: 0.8"/>
      </g>
     </g>
     <g id="text_12">
      <!-- 108 -->
      <g transform="translate(26.198516 148.664794) scale(0.1 -0.1)">
       <defs>
        <path id="MalgunGothic-1b" d="M 303 1281 
Q 303 1669 539 2011 
Q 775 2353 1153 2494 
Q 856 2647 675 2915 
Q 494 3184 494 3500 
Q 494 3828 659 4098 
Q 825 4369 1122 4522 
Q 1419 4675 1778 4675 
Q 2334 4675 2700 4342 
Q 3066 4009 3066 3500 
Q 3066 3181 2881 2914 
Q 2697 2647 2413 2494 
Q 2788 2350 3022 2009 
Q 3256 1669 3256 1281 
Q 3256 672 2843 297 
Q 2431 -78 1778 -78 
Q 1131 -78 717 301 
Q 303 681 303 1281 
z
M 809 1328 
Q 809 878 1081 611 
Q 1353 344 1781 344 
Q 2206 344 2482 619 
Q 2759 894 2759 1328 
Q 2759 1731 2482 2011 
Q 2206 2291 1781 2291 
Q 1372 2291 1090 2020 
Q 809 1750 809 1328 
z
M 1003 3459 
Q 1003 3125 1234 2900 
Q 1466 2675 1781 2675 
Q 2097 2675 2330 2900 
Q 2563 3125 2563 3459 
Q 2563 3803 2341 4026 
Q 2119 4250 1781 4250 
Q 1450 4250 1226 4029 
Q 1003 3809 1003 3459 
z
" transform="scale(0.015625)"/>
       </defs>
       <use xlink:href="#MalgunGothic-14"/>
       <use xlink:href="#MalgunGothic-13" transform="translate(55.078125 0)"/>
       <use xlink:href="#MalgunGothic-1b" transform="translate(110.15625 0)"/>
      </g>
     </g>
    </g>
    <g id="ytick_6">
     <g id="line2d_18">
      <path d="M 49.721953 103.791316 
L 709.2 103.791316 
" clip-path="url(#p8cf5203c36)" style="fill: none; stroke: #b0b0b0; stroke-opacity: 0.25; stroke-width: 0.8; stroke-linecap: square"/>
     </g>
     <g id="line2d_19">
      <g>
       <use xlink:href="#m9ead651f81" x="49.721953" y="103.791316" style="stroke: #000000; stroke-width: 0.8"/>
      </g>
     </g>
     <g id="text_13">
      <!-- 110 -->
      <g transform="translate(26.198516 107.790339) scale(0.1 -0.1)">
       <use xlink:href="#MalgunGothic-14"/>
       <use xlink:href="#MalgunGothic-14" transform="translate(55.078125 0)"/>
       <use xlink:href="#MalgunGothic-13" transform="translate(110.15625 0)"/>
      </g>
     </g>
    </g>
    <g id="ytick_7">
     <g id="line2d_20">
      <path d="M 49.721953 62.916861 
L 709.2 62.916861 
" clip-path="url(#p8cf5203c36)" style="fill: none; stroke: #b0b0b0; stroke-opacity: 0.25; stroke-width: 0.8; stroke-linecap: square"/>
     </g>
     <g id="line2d_21">
      <g>
       <use xlink:href="#m9ead651f81" x="49.721953" y="62.916861" style="stroke: #000000; stroke-width: 0.8"/>
      </g>
     </g>
     <g id="text_14">
      <!-- 112 -->
      <g transform="translate(26.198516 66.915884) scale(0.1 -0.1)">
       <use xlink:href="#MalgunGothic-14"/>
       <use xlink:href="#MalgunGothic-14" transform="translate(55.078125 0)"/>
       <use xlink:href="#MalgunGothic-15" transform="translate(110.15625 0)"/>
      </g>
     </g>
    </g>
    <g id="text_15">
     <!-- 종료잔고 (만원) -->
     <g transform="translate(20.196563 209.023711) rotate(-90) scale(0.1 -0.1)">
      <defs>
       <path id="MalgunGothic-8d7" d="M 5459 3272 
Q 4716 3391 4080 3722 
Q 3444 4053 3206 4409 
Q 2981 4091 2353 3750 
Q 1725 3409 972 3278 
L 697 3653 
Q 1478 3713 2139 4083 
Q 2800 4453 2950 4878 
L 1025 4878 
L 1025 5300 
L 5375 5300 
L 5375 4878 
L 3456 4878 
Q 3597 4456 4251 4090 
Q 4906 3725 5703 3653 
L 5459 3272 
z
M 403 2203 
L 403 2625 
L 2963 2625 
L 2963 3506 
L 3438 3506 
L 3438 2625 
L 5997 2625 
L 5997 2203 
L 403 2203 
z
M 3200 -500 
Q 2263 -500 1766 -200 
Q 1269 100 1269 628 
Q 1269 1144 1767 1442 
Q 2266 1741 3200 1741 
Q 4134 1741 4632 1442 
Q 5131 1144 5131 628 
Q 5131 100 4634 -200 
Q 4138 -500 3200 -500 
z
M 3200 1344 
Q 2481 1344 2117 1155 
Q 1753 966 1753 628 
Q 1753 284 2123 90 
Q 2494 -103 3200 -103 
Q 3903 -103 4275 90 
Q 4647 284 4647 628 
Q 4647 966 4281 1155 
Q 3916 1344 3200 1344 
z
" transform="scale(0.015625)"/>
       <path id="MalgunGothic-54e" d="M 1234 3681 
L 4672 3681 
L 4672 4538 
L 1247 4538 
L 1247 4953 
L 5147 4953 
L 5147 3278 
L 1709 3278 
L 1709 2356 
L 5288 2356 
L 5288 1941 
L 4378 1941 
L 4378 769 
L 5997 769 
L 5997 353 
L 403 353 
L 403 769 
L 2022 769 
L 2022 1941 
L 1234 1941 
L 1234 3681 
z
M 2491 769 
L 3909 769 
L 3909 1941 
L 2491 1941 
L 2491 769 
z
" transform="scale(0.015625)"/>
       <path id="MalgunGothic-897" d="M 5125 3169 
L 5125 1063 
L 4659 1063 
L 4659 5466 
L 5125 5466 
L 5125 3584 
L 6034 3584 
L 6034 3169 
L 5125 3169 
z
M 3597 2081 
Q 3206 2294 2778 2731 
Q 2350 3169 2188 3525 
Q 2038 3125 1603 2642 
Q 1169 2159 750 1925 
L 409 2247 
Q 1041 2553 1492 3173 
Q 1944 3794 1953 4453 
L 1953 4716 
L 622 4716 
L 622 5141 
L 3731 5141 
L 3731 4716 
L 2400 4716 
L 2400 4453 
Q 2400 3841 2851 3259 
Q 3303 2678 3909 2419 
L 3597 2081 
z
M 1478 -353 
L 1478 1528 
L 1953 1528 
L 1953 72 
L 5325 72 
L 5325 -353 
L 1478 -353 
z
" transform="scale(0.015625)"/>
       <path id="MalgunGothic-2c8" d="M 4959 1656 
L 4506 1697 
Q 4616 2694 4616 3534 
L 4616 4475 
L 1216 4475 
L 1216 4897 
L 5081 4897 
L 5081 3525 
Q 5081 2613 4959 1656 
z
M 403 513 
L 403 934 
L 2625 934 
L 2625 2900 
L 3091 2900 
L 3091 934 
L 5997 934 
L 5997 513 
L 403 513 
z
" transform="scale(0.015625)"/>
       <path id="MalgunGothic-3" transform="scale(0.015625)"/>
       <path id="MalgunGothic-583" d="M 5125 3169 
L 5125 1056 
L 4659 1056 
L 4659 5466 
L 5125 5466 
L 5125 3591 
L 6034 3591 
L 6034 3169 
L 5125 3169 
z
M 763 2241 
L 763 5100 
L 3513 5100 
L 3513 2241 
L 763 2241 
z
M 3053 4684 
L 1222 4684 
L 1222 2656 
L 3053 2656 
L 3053 4684 
z
M 1459 -331 
L 1459 1581 
L 1925 1581 
L 1925 91 
L 5294 91 
L 5294 -331 
L 1459 -331 
z
" transform="scale(0.015625)"/>
       <path id="MalgunGothic-855" d="M 4978 697 
L 4978 1344 
L 3659 1344 
L 3659 1759 
L 4978 1759 
L 4978 5466 
L 5453 5466 
L 5453 697 
L 4978 697 
z
M 2625 3059 
Q 1966 3059 1548 3390 
Q 1131 3722 1131 4213 
Q 1131 4697 1545 5026 
Q 1959 5356 2625 5356 
Q 3288 5356 3702 5029 
Q 4116 4703 4116 4213 
Q 4116 3719 3700 3389 
Q 3284 3059 2625 3059 
z
M 2625 4959 
Q 2163 4959 1881 4734 
Q 1600 4509 1600 4213 
Q 1600 3909 1881 3682 
Q 2163 3456 2625 3456 
Q 3088 3456 3370 3682 
Q 3653 3909 3653 4213 
Q 3653 4509 3370 4734 
Q 3088 4959 2625 4959 
z
M 4556 2291 
Q 4100 2259 2881 2209 
L 2881 909 
L 2419 909 
L 2419 2188 
Q 1209 2144 641 2144 
L 575 2578 
Q 2853 2578 4525 2694 
L 4556 2291 
z
M 1509 -403 
L 1509 1403 
L 1978 1403 
L 1978 13 
L 5600 13 
L 5600 -403 
L 1509 -403 
z
" transform="scale(0.015625)"/>
      </defs>
      <use xlink:href="#MalgunGothic-8d7"/>
      <use xlink:href="#MalgunGothic-54e" transform="translate(100 0)"/>
      <use xlink:href="#MalgunGothic-897" transform="translate(200 0)"/>
      <use xlink:href="#MalgunGothic-2c8" transform="translate(300 0)"/>
      <use xlink:href="#MalgunGothic-3" transform="translate(400 0)"/>
      <use xlink:href="#MalgunGothic-b" transform="translate(435.15625 0)"/>
      <use xlink:href="#MalgunGothic-583" transform="translate(465.625 0)"/>
      <use xlink:href="#MalgunGothic-855" transform="translate(565.625 0)"/>
      <use xlink:href="#MalgunGothic-c" transform="translate(665.625 0)"/>
     </g>
    </g>
   </g>
   <g id="patch_3">
    <path d="M 73.274741 49.80638 
L 120.380315 49.80638 
L 120.380315 48.032428 
L 73.274741 48.032428 
L 73.274741 49.80638 
z
" clip-path="url(#p8cf5203c36)" style="fill: #7e5ca8; opacity: 0.45; stroke: #000000; stroke-linejoin: miter"/>
   </g>
   <g id="line2d_22">
    <path d="M 96.827528 49.80638 
L 96.827528 49.80638 
" clip-path="url(#p8cf5203c36)" style="fill: none; stroke: #000000; stroke-linecap: square"/>
   </g>
   <g id="line2d_23">
    <path d="M 96.827528 48.032428 
L 96.827528 48.032428 
" clip-path="url(#p8cf5203c36)" style="fill: none; stroke: #000000; stroke-linecap: square"/>
   </g>
   <g id="line2d_24">
    <path d="M 85.051134 49.80638 
L 108.603922 49.80638 
" clip-path="url(#p8cf5203c36)" style="fill: none; stroke: #000000; stroke-linecap: square"/>
   </g>
   <g id="line2d_25">
    <path d="M 85.051134 48.032428 
L 108.603922 48.032428 
" clip-path="url(#p8cf5203c36)" style="fill: none; stroke: #000000; stroke-linecap: square"/>
   </g>
   <g id="line2d_26">
    <defs>
     <path id="ma83ee32eb4" d="M 0 3 
C 0.795609 3 1.55874 2.683901 2.12132 2.12132 
C 2.683901 1.55874 3 0.795609 3 0 
C 3 -0.795609 2.683901 -1.55874 2.12132 -2.12132 
C 1.55874 -2.683901 0.795609 -3 0 -3 
C -0.795609 -3 -1.55874 -2.683901 -2.12132 -2.12132 
C -2.683901 -1.55874 -3 -0.795609 -3 0 
C -3 0.795609 -2.683901 1.55874 -2.12132 2.12132 
C -1.55874 2.683901 -0.795609 3 0 3 
z
" style="stroke: #000000"/>
    </defs>
    <g clip-path="url(#p8cf5203c36)">
     <use xlink:href="#ma83ee32eb4" x="96.827528" y="113.699284" style="fill-opacity: 0; stroke: #000000"/>
     <use xlink:href="#ma83ee32eb4" x="96.827528" y="40.274457" style="fill-opacity: 0; stroke: #000000"/>
    </g>
   </g>
   <g id="patch_4">
    <path d="M 167.48589 58.829415 
L 214.591465 58.829415 
L 214.591465 54.772626 
L 167.48589 54.772626 
L 167.48589 58.829415 
z
" clip-path="url(#p8cf5203c36)" style="fill: #d48a1f; opacity: 0.45; stroke: #000000; stroke-linejoin: miter"/>
   </g>
   <g id="line2d_27">
    <path d="M 191.038677 58.829415 
L 191.038677 63.660776 
" clip-path="url(#p8cf5203c36)" style="fill: none; stroke: #000000; stroke-linecap: square"/>
   </g>
   <g id="line2d_28">
    <path d="M 191.038677 54.772626 
L 191.038677 54.388406 
" clip-path="url(#p8cf5203c36)" style="fill: none; stroke: #000000; stroke-linecap: square"/>
   </g>
   <g id="line2d_29">
    <path d="M 179.262284 63.660776 
L 202.815071 63.660776 
" clip-path="url(#p8cf5203c36)" style="fill: none; stroke: #000000; stroke-linecap: square"/>
   </g>
   <g id="line2d_30">
    <path d="M 179.262284 54.388406 
L 202.815071 54.388406 
" clip-path="url(#p8cf5203c36)" style="fill: none; stroke: #000000; stroke-linecap: square"/>
   </g>
   <g id="line2d_31">
    <g clip-path="url(#p8cf5203c36)">
     <use xlink:href="#ma83ee32eb4" x="191.038677" y="65.06277" style="fill-opacity: 0; stroke: #000000"/>
    </g>
   </g>
   <g id="patch_5">
    <path d="M 261.69704 121.918626 
L 308.802614 121.918626 
L 308.802614 97.709197 
L 261.69704 97.709197 
L 261.69704 121.918626 
z
" clip-path="url(#p8cf5203c36)" style="fill: #2c9c69; opacity: 0.45; stroke: #000000; stroke-linejoin: miter"/>
   </g>
   <g id="line2d_32">
    <path d="M 285.249827 121.918626 
L 285.249827 141.653323 
" clip-path="url(#p8cf5203c36)" style="fill: none; stroke: #000000; stroke-linecap: square"/>
   </g>
   <g id="line2d_33">
    <path d="M 285.249827 97.709197 
L 285.249827 72.869791 
" clip-path="url(#p8cf5203c36)" style="fill: none; stroke: #000000; stroke-linecap: square"/>
   </g>
   <g id="line2d_34">
    <path d="M 273.473433 141.653323 
L 297.026221 141.653323 
" clip-path="url(#p8cf5203c36)" style="fill: none; stroke: #000000; stroke-linecap: square"/>
   </g>
   <g id="line2d_35">
    <path d="M 273.473433 72.869791 
L 297.026221 72.869791 
" clip-path="url(#p8cf5203c36)" style="fill: none; stroke: #000000; stroke-linecap: square"/>
   </g>
   <g id="line2d_36"/>
   <g id="patch_6">
    <path d="M 355.908189 138.215782 
L 403.013764 138.215782 
L 403.013764 138.215782 
L 355.908189 138.215782 
L 355.908189 138.215782 
z
" clip-path="url(#p8cf5203c36)" style="fill: #58606a; opacity: 0.45; stroke: #000000; stroke-linejoin: miter"/>
   </g>
   <g id="line2d_37">
    <path d="M 379.460977 138.215782 
L 379.460977 138.215782 
" clip-path="url(#p8cf5203c36)" style="fill: none; stroke: #000000; stroke-linecap: square"/>
   </g>
   <g id="line2d_38">
    <path d="M 379.460977 138.215782 
L 379.460977 138.215782 
" clip-path="url(#p8cf5203c36)" style="fill: none; stroke: #000000; stroke-linecap: square"/>
   </g>
   <g id="line2d_39">
    <path d="M 367.684583 138.215782 
L 391.23737 138.215782 
" clip-path="url(#p8cf5203c36)" style="fill: none; stroke: #000000; stroke-linecap: square"/>
   </g>
   <g id="line2d_40">
    <path d="M 367.684583 138.215782 
L 391.23737 138.215782 
" clip-path="url(#p8cf5203c36)" style="fill: none; stroke: #000000; stroke-linecap: square"/>
   </g>
   <g id="line2d_41"/>
   <g id="patch_7">
    <path d="M 450.119339 146.999702 
L 497.224914 146.999702 
L 497.224914 146.999702 
L 450.119339 146.999702 
L 450.119339 146.999702 
z
" clip-path="url(#p8cf5203c36)" style="fill: #c44545; opacity: 0.45; stroke: #000000; stroke-linejoin: miter"/>
   </g>
   <g id="line2d_42">
    <path d="M 473.672126 146.999702 
L 473.672126 146.999702 
" clip-path="url(#p8cf5203c36)" style="fill: none; stroke: #000000; stroke-linecap: square"/>
   </g>
   <g id="line2d_43">
    <path d="M 473.672126 146.999702 
L 473.672126 146.999702 
" clip-path="url(#p8cf5203c36)" style="fill: none; stroke: #000000; stroke-linecap: square"/>
   </g>
   <g id="line2d_44">
    <path d="M 461.895732 146.999702 
L 485.44852 146.999702 
" clip-path="url(#p8cf5203c36)" style="fill: none; stroke: #000000; stroke-linecap: square"/>
   </g>
   <g id="line2d_45">
    <path d="M 461.895732 146.999702 
L 485.44852 146.999702 
" clip-path="url(#p8cf5203c36)" style="fill: none; stroke: #000000; stroke-linecap: square"/>
   </g>
   <g id="line2d_46"/>
   <g id="patch_8">
    <path d="M 544.330488 247.099198 
L 591.436063 247.099198 
L 591.436063 247.099198 
L 544.330488 247.099198 
L 544.330488 247.099198 
z
" clip-path="url(#p8cf5203c36)" style="fill: #4a8f9f; opacity: 0.45; stroke: #000000; stroke-linejoin: miter"/>
   </g>
   <g id="line2d_47">
    <path d="M 567.883276 247.099198 
L 567.883276 247.099198 
" clip-path="url(#p8cf5203c36)" style="fill: none; stroke: #000000; stroke-linecap: square"/>
   </g>
   <g id="line2d_48">
    <path d="M 567.883276 247.099198 
L 567.883276 247.099198 
" clip-path="url(#p8cf5203c36)" style="fill: none; stroke: #000000; stroke-linecap: square"/>
   </g>
   <g id="line2d_49">
    <path d="M 556.106882 247.099198 
L 579.659669 247.099198 
" clip-path="url(#p8cf5203c36)" style="fill: none; stroke: #000000; stroke-linecap: square"/>
   </g>
   <g id="line2d_50">
    <path d="M 556.106882 247.099198 
L 579.659669 247.099198 
" clip-path="url(#p8cf5203c36)" style="fill: none; stroke: #000000; stroke-linecap: square"/>
   </g>
   <g id="line2d_51"/>
   <g id="patch_9">
    <path d="M 638.541638 308.16359 
L 685.647213 308.16359 
L 685.647213 308.16359 
L 638.541638 308.16359 
L 638.541638 308.16359 
z
" clip-path="url(#p8cf5203c36)" style="fill: #777777; opacity: 0.45; stroke: #000000; stroke-linejoin: miter"/>
   </g>
   <g id="line2d_52">
    <path d="M 662.094425 308.16359 
L 662.094425 308.16359 
" clip-path="url(#p8cf5203c36)" style="fill: none; stroke: #000000; stroke-linecap: square"/>
   </g>
   <g id="line2d_53">
    <path d="M 662.094425 308.16359 
L 662.094425 308.16359 
" clip-path="url(#p8cf5203c36)" style="fill: none; stroke: #000000; stroke-linecap: square"/>
   </g>
   <g id="line2d_54">
    <path d="M 650.318032 308.16359 
L 673.870819 308.16359 
" clip-path="url(#p8cf5203c36)" style="fill: none; stroke: #000000; stroke-linecap: square"/>
   </g>
   <g id="line2d_55">
    <path d="M 650.318032 308.16359 
L 673.870819 308.16359 
" clip-path="url(#p8cf5203c36)" style="fill: none; stroke: #000000; stroke-linecap: square"/>
   </g>
   <g id="line2d_56"/>
   <g id="line2d_57">
    <path d="M 73.274741 49.80638 
L 120.380315 49.80638 
" clip-path="url(#p8cf5203c36)" style="fill: none; stroke: #ff7f0e"/>
   </g>
   <g id="line2d_58">
    <defs>
     <path id="m3f3049454b" d="M 0 -3 
L -3 3 
L 3 3 
z
" style="stroke: #2ca02c; stroke-linejoin: miter"/>
    </defs>
    <g clip-path="url(#p8cf5203c36)">
     <use xlink:href="#m3f3049454b" x="96.827528" y="60.323786" style="fill: #2ca02c; stroke: #2ca02c; stroke-linejoin: miter"/>
    </g>
   </g>
   <g id="line2d_59">
    <path d="M 167.48589 55.94981 
L 214.591465 55.94981 
" clip-path="url(#p8cf5203c36)" style="fill: none; stroke: #ff7f0e"/>
   </g>
   <g id="line2d_60">
    <g clip-path="url(#p8cf5203c36)">
     <use xlink:href="#m3f3049454b" x="191.038677" y="57.648212" style="fill: #2ca02c; stroke: #2ca02c; stroke-linejoin: miter"/>
    </g>
   </g>
   <g id="line2d_61">
    <path d="M 261.69704 107.30141 
L 308.802614 107.30141 
" clip-path="url(#p8cf5203c36)" style="fill: none; stroke: #ff7f0e"/>
   </g>
   <g id="line2d_62">
    <g clip-path="url(#p8cf5203c36)">
     <use xlink:href="#m3f3049454b" x="285.249827" y="108.536704" style="fill: #2ca02c; stroke: #2ca02c; stroke-linejoin: miter"/>
    </g>
   </g>
   <g id="line2d_63">
    <path d="M 355.908189 138.215782 
L 403.013764 138.215782 
" clip-path="url(#p8cf5203c36)" style="fill: none; stroke: #ff7f0e"/>
   </g>
   <g id="line2d_64">
    <g clip-path="url(#p8cf5203c36)">
     <use xlink:href="#m3f3049454b" x="379.460977" y="138.215782" style="fill: #2ca02c; stroke: #2ca02c; stroke-linejoin: miter"/>
    </g>
   </g>
   <g id="line2d_65">
    <path d="M 450.119339 146.999702 
L 497.224914 146.999702 
" clip-path="url(#p8cf5203c36)" style="fill: none; stroke: #ff7f0e"/>
   </g>
   <g id="line2d_66">
    <g clip-path="url(#p8cf5203c36)">
     <use xlink:href="#m3f3049454b" x="473.672126" y="146.999702" style="fill: #2ca02c; stroke: #2ca02c; stroke-linejoin: miter"/>
    </g>
   </g>
   <g id="line2d_67">
    <path d="M 544.330488 247.099198 
L 591.436063 247.099198 
" clip-path="url(#p8cf5203c36)" style="fill: none; stroke: #ff7f0e"/>
   </g>
   <g id="line2d_68">
    <g clip-path="url(#p8cf5203c36)">
     <use xlink:href="#m3f3049454b" x="567.883276" y="247.099198" style="fill: #2ca02c; stroke: #2ca02c; stroke-linejoin: miter"/>
    </g>
   </g>
   <g id="line2d_69">
    <path d="M 638.541638 308.16359 
L 685.647213 308.16359 
" clip-path="url(#p8cf5203c36)" style="fill: none; stroke: #ff7f0e"/>
   </g>
   <g id="line2d_70">
    <g clip-path="url(#p8cf5203c36)">
     <use xlink:href="#m3f3049454b" x="662.094425" y="308.16359" style="fill: #2ca02c; stroke: #2ca02c; stroke-linejoin: miter"/>
    </g>
   </g>
   <g id="patch_10">
    <path d="M 49.721953 321.558047 
L 49.721953 26.88 
" style="fill: none; stroke: #000000; stroke-width: 0.8; stroke-linejoin: miter; stroke-linecap: square"/>
   </g>
   <g id="patch_11">
    <path d="M 709.2 321.558047 
L 709.2 26.88 
" style="fill: none; stroke: #000000; stroke-width: 0.8; stroke-linejoin: miter; stroke-linecap: square"/>
   </g>
   <g id="patch_12">
    <path d="M 49.721953 321.558047 
L 709.2 321.558047 
" style="fill: none; stroke: #000000; stroke-width: 0.8; stroke-linejoin: miter; stroke-linecap: square"/>
   </g>
   <g id="patch_13">
    <path d="M 49.721953 26.88 
L 709.2 26.88 
" style="fill: none; stroke: #000000; stroke-width: 0.8; stroke-linejoin: miter; stroke-linecap: square"/>
   </g>
   <g id="PathCollection_1">
    <defs>
     <path id="mf76fd36271" d="M 0 2.345208 
C 0.621956 2.345208 1.218523 2.098102 1.658312 1.658312 
C 2.098102 1.218523 2.345208 0.621956 2.345208 0 
C 2.345208 -0.621956 2.098102 -1.218523 1.658312 -1.658312 
C 1.218523 -2.098102 0.621956 -2.345208 0 -2.345208 
C -0.621956 -2.345208 -1.218523 -2.098102 -1.658312 -1.658312 
C -2.098102 -1.218523 -2.345208 -0.621956 -2.345208 0 
C -2.345208 0.621956 -2.098102 1.218523 -1.658312 1.658312 
C -1.218523 2.098102 -0.621956 2.345208 0 2.345208 
z
" style="stroke: #222222; stroke-opacity: 0.55"/>
    </defs>
    <g clip-path="url(#p8cf5203c36)">
     <use xlink:href="#mf76fd36271" x="96.827528" y="113.699284" style="fill: #222222; fill-opacity: 0.55; stroke: #222222; stroke-opacity: 0.55"/>
     <use xlink:href="#mf76fd36271" x="96.827528" y="48.032428" style="fill: #222222; fill-opacity: 0.55; stroke: #222222; stroke-opacity: 0.55"/>
     <use xlink:href="#mf76fd36271" x="96.827528" y="49.80638" style="fill: #222222; fill-opacity: 0.55; stroke: #222222; stroke-opacity: 0.55"/>
     <use xlink:href="#mf76fd36271" x="96.827528" y="49.80638" style="fill: #222222; fill-opacity: 0.55; stroke: #222222; stroke-opacity: 0.55"/>
     <use xlink:href="#mf76fd36271" x="96.827528" y="40.274457" style="fill: #222222; fill-opacity: 0.55; stroke: #222222; stroke-opacity: 0.55"/>
    </g>
   </g>
   <g id="PathCollection_2">
    <g clip-path="url(#p8cf5203c36)">
     <use xlink:href="#mf76fd36271" x="191.038677" y="54.453805" style="fill: #222222; fill-opacity: 0.55; stroke: #222222; stroke-opacity: 0.55"/>
     <use xlink:href="#mf76fd36271" x="191.038677" y="54.772626" style="fill: #222222; fill-opacity: 0.55; stroke: #222222; stroke-opacity: 0.55"/>
     <use xlink:href="#mf76fd36271" x="191.038677" y="54.453805" style="fill: #222222; fill-opacity: 0.55; stroke: #222222; stroke-opacity: 0.55"/>
     <use xlink:href="#mf76fd36271" x="191.038677" y="54.772626" style="fill: #222222; fill-opacity: 0.55; stroke: #222222; stroke-opacity: 0.55"/>
     <use xlink:href="#mf76fd36271" x="191.038677" y="54.453805" style="fill: #222222; fill-opacity: 0.55; stroke: #222222; stroke-opacity: 0.55"/>
     <use xlink:href="#mf76fd36271" x="191.038677" y="54.543729" style="fill: #222222; fill-opacity: 0.55; stroke: #222222; stroke-opacity: 0.55"/>
     <use xlink:href="#mf76fd36271" x="191.038677" y="63.660776" style="fill: #222222; fill-opacity: 0.55; stroke: #222222; stroke-opacity: 0.55"/>
     <use xlink:href="#mf76fd36271" x="191.038677" y="54.388406" style="fill: #222222; fill-opacity: 0.55; stroke: #222222; stroke-opacity: 0.55"/>
     <use xlink:href="#mf76fd36271" x="191.038677" y="54.453805" style="fill: #222222; fill-opacity: 0.55; stroke: #222222; stroke-opacity: 0.55"/>
     <use xlink:href="#mf76fd36271" x="191.038677" y="54.453805" style="fill: #222222; fill-opacity: 0.55; stroke: #222222; stroke-opacity: 0.55"/>
     <use xlink:href="#mf76fd36271" x="191.038677" y="55.279469" style="fill: #222222; fill-opacity: 0.55; stroke: #222222; stroke-opacity: 0.55"/>
     <use xlink:href="#mf76fd36271" x="191.038677" y="58.829415" style="fill: #222222; fill-opacity: 0.55; stroke: #222222; stroke-opacity: 0.55"/>
     <use xlink:href="#mf76fd36271" x="191.038677" y="56.395342" style="fill: #222222; fill-opacity: 0.55; stroke: #222222; stroke-opacity: 0.55"/>
     <use xlink:href="#mf76fd36271" x="191.038677" y="63.660776" style="fill: #222222; fill-opacity: 0.55; stroke: #222222; stroke-opacity: 0.55"/>
     <use xlink:href="#mf76fd36271" x="191.038677" y="56.36673" style="fill: #222222; fill-opacity: 0.55; stroke: #222222; stroke-opacity: 0.55"/>
     <use xlink:href="#mf76fd36271" x="191.038677" y="65.06277" style="fill: #222222; fill-opacity: 0.55; stroke: #222222; stroke-opacity: 0.55"/>
     <use xlink:href="#mf76fd36271" x="191.038677" y="63.660776" style="fill: #222222; fill-opacity: 0.55; stroke: #222222; stroke-opacity: 0.55"/>
     <use xlink:href="#mf76fd36271" x="191.038677" y="58.829415" style="fill: #222222; fill-opacity: 0.55; stroke: #222222; stroke-opacity: 0.55"/>
     <use xlink:href="#mf76fd36271" x="191.038677" y="58.829415" style="fill: #222222; fill-opacity: 0.55; stroke: #222222; stroke-opacity: 0.55"/>
     <use xlink:href="#mf76fd36271" x="191.038677" y="58.829415" style="fill: #222222; fill-opacity: 0.55; stroke: #222222; stroke-opacity: 0.55"/>
     <use xlink:href="#mf76fd36271" x="191.038677" y="55.532891" style="fill: #222222; fill-opacity: 0.55; stroke: #222222; stroke-opacity: 0.55"/>
     <use xlink:href="#mf76fd36271" x="191.038677" y="55.532891" style="fill: #222222; fill-opacity: 0.55; stroke: #222222; stroke-opacity: 0.55"/>
     <use xlink:href="#mf76fd36271" x="191.038677" y="57.740111" style="fill: #222222; fill-opacity: 0.55; stroke: #222222; stroke-opacity: 0.55"/>
     <use xlink:href="#mf76fd36271" x="191.038677" y="58.829415" style="fill: #222222; fill-opacity: 0.55; stroke: #222222; stroke-opacity: 0.55"/>
     <use xlink:href="#mf76fd36271" x="191.038677" y="55.532891" style="fill: #222222; fill-opacity: 0.55; stroke: #222222; stroke-opacity: 0.55"/>
     <use xlink:href="#mf76fd36271" x="191.038677" y="63.660776" style="fill: #222222; fill-opacity: 0.55; stroke: #222222; stroke-opacity: 0.55"/>
     <use xlink:href="#mf76fd36271" x="191.038677" y="55.532891" style="fill: #222222; fill-opacity: 0.55; stroke: #222222; stroke-opacity: 0.55"/>
     <use xlink:href="#mf76fd36271" x="191.038677" y="63.660776" style="fill: #222222; fill-opacity: 0.55; stroke: #222222; stroke-opacity: 0.55"/>
     <use xlink:href="#mf76fd36271" x="191.038677" y="55.532891" style="fill: #222222; fill-opacity: 0.55; stroke: #222222; stroke-opacity: 0.55"/>
     <use xlink:href="#mf76fd36271" x="191.038677" y="57.740111" style="fill: #222222; fill-opacity: 0.55; stroke: #222222; stroke-opacity: 0.55"/>
    </g>
   </g>
   <g id="PathCollection_3">
    <g clip-path="url(#p8cf5203c36)">
     <use xlink:href="#mf76fd36271" x="285.249827" y="91.93568" style="fill: #222222; fill-opacity: 0.55; stroke: #222222; stroke-opacity: 0.55"/>
     <use xlink:href="#mf76fd36271" x="285.249827" y="95.250598" style="fill: #222222; fill-opacity: 0.55; stroke: #222222; stroke-opacity: 0.55"/>
     <use xlink:href="#mf76fd36271" x="285.249827" y="135.172679" style="fill: #222222; fill-opacity: 0.55; stroke: #222222; stroke-opacity: 0.55"/>
     <use xlink:href="#mf76fd36271" x="285.249827" y="72.869791" style="fill: #222222; fill-opacity: 0.55; stroke: #222222; stroke-opacity: 0.55"/>
     <use xlink:href="#mf76fd36271" x="285.249827" y="121.518567" style="fill: #222222; fill-opacity: 0.55; stroke: #222222; stroke-opacity: 0.55"/>
     <use xlink:href="#mf76fd36271" x="285.249827" y="141.653323" style="fill: #222222; fill-opacity: 0.55; stroke: #222222; stroke-opacity: 0.55"/>
     <use xlink:href="#mf76fd36271" x="285.249827" y="124.72108" style="fill: #222222; fill-opacity: 0.55; stroke: #222222; stroke-opacity: 0.55"/>
     <use xlink:href="#mf76fd36271" x="285.249827" y="98.126116" style="fill: #222222; fill-opacity: 0.55; stroke: #222222; stroke-opacity: 0.55"/>
     <use xlink:href="#mf76fd36271" x="285.249827" y="94.907253" style="fill: #222222; fill-opacity: 0.55; stroke: #222222; stroke-opacity: 0.55"/>
     <use xlink:href="#mf76fd36271" x="285.249827" y="89.990056" style="fill: #222222; fill-opacity: 0.55; stroke: #222222; stroke-opacity: 0.55"/>
     <use xlink:href="#mf76fd36271" x="285.249827" y="111.782272" style="fill: #222222; fill-opacity: 0.55; stroke: #222222; stroke-opacity: 0.55"/>
     <use xlink:href="#mf76fd36271" x="285.249827" y="98.96813" style="fill: #222222; fill-opacity: 0.55; stroke: #222222; stroke-opacity: 0.55"/>
     <use xlink:href="#mf76fd36271" x="285.249827" y="112.20941" style="fill: #222222; fill-opacity: 0.55; stroke: #222222; stroke-opacity: 0.55"/>
     <use xlink:href="#mf76fd36271" x="285.249827" y="105.669497" style="fill: #222222; fill-opacity: 0.55; stroke: #222222; stroke-opacity: 0.55"/>
     <use xlink:href="#mf76fd36271" x="285.249827" y="103.678911" style="fill: #222222; fill-opacity: 0.55; stroke: #222222; stroke-opacity: 0.55"/>
     <use xlink:href="#mf76fd36271" x="285.249827" y="125.796079" style="fill: #222222; fill-opacity: 0.55; stroke: #222222; stroke-opacity: 0.55"/>
     <use xlink:href="#mf76fd36271" x="285.249827" y="133.034945" style="fill: #222222; fill-opacity: 0.55; stroke: #222222; stroke-opacity: 0.55"/>
     <use xlink:href="#mf76fd36271" x="285.249827" y="90.719665" style="fill: #222222; fill-opacity: 0.55; stroke: #222222; stroke-opacity: 0.55"/>
     <use xlink:href="#mf76fd36271" x="285.249827" y="105.971968" style="fill: #222222; fill-opacity: 0.55; stroke: #222222; stroke-opacity: 0.55"/>
     <use xlink:href="#mf76fd36271" x="285.249827" y="125.426165" style="fill: #222222; fill-opacity: 0.55; stroke: #222222; stroke-opacity: 0.55"/>
     <use xlink:href="#mf76fd36271" x="285.249827" y="97.570224" style="fill: #222222; fill-opacity: 0.55; stroke: #222222; stroke-opacity: 0.55"/>
     <use xlink:href="#mf76fd36271" x="285.249827" y="108.630851" style="fill: #222222; fill-opacity: 0.55; stroke: #222222; stroke-opacity: 0.55"/>
     <use xlink:href="#mf76fd36271" x="285.249827" y="104.537275" style="fill: #222222; fill-opacity: 0.55; stroke: #222222; stroke-opacity: 0.55"/>
     <use xlink:href="#mf76fd36271" x="285.249827" y="98.829157" style="fill: #222222; fill-opacity: 0.55; stroke: #222222; stroke-opacity: 0.55"/>
     <use xlink:href="#mf76fd36271" x="285.249827" y="84.688639" style="fill: #222222; fill-opacity: 0.55; stroke: #222222; stroke-opacity: 0.55"/>
     <use xlink:href="#mf76fd36271" x="285.249827" y="117.40864" style="fill: #222222; fill-opacity: 0.55; stroke: #222222; stroke-opacity: 0.55"/>
     <use xlink:href="#mf76fd36271" x="285.249827" y="108.753475" style="fill: #222222; fill-opacity: 0.55; stroke: #222222; stroke-opacity: 0.55"/>
     <use xlink:href="#mf76fd36271" x="285.249827" y="111.33674" style="fill: #222222; fill-opacity: 0.55; stroke: #222222; stroke-opacity: 0.55"/>
     <use xlink:href="#mf76fd36271" x="285.249827" y="122.051979" style="fill: #222222; fill-opacity: 0.55; stroke: #222222; stroke-opacity: 0.55"/>
     <use xlink:href="#mf76fd36271" x="285.249827" y="122.891949" style="fill: #222222; fill-opacity: 0.55; stroke: #222222; stroke-opacity: 0.55"/>
    </g>
   </g>
   <g id="PathCollection_4">
    <g clip-path="url(#p8cf5203c36)">
     <use xlink:href="#mf76fd36271" x="379.460977" y="138.215782" style="fill: #222222; fill-opacity: 0.55; stroke: #222222; stroke-opacity: 0.55"/>
    </g>
   </g>
   <g id="PathCollection_5">
    <g clip-path="url(#p8cf5203c36)">
     <use xlink:href="#mf76fd36271" x="473.672126" y="146.999702" style="fill: #222222; fill-opacity: 0.55; stroke: #222222; stroke-opacity: 0.55"/>
    </g>
   </g>
   <g id="PathCollection_6">
    <g clip-path="url(#p8cf5203c36)">
     <use xlink:href="#mf76fd36271" x="567.883276" y="247.099198" style="fill: #222222; fill-opacity: 0.55; stroke: #222222; stroke-opacity: 0.55"/>
    </g>
   </g>
   <g id="PathCollection_7">
    <g clip-path="url(#p8cf5203c36)">
     <use xlink:href="#mf76fd36271" x="662.094425" y="308.16359" style="fill: #222222; fill-opacity: 0.55; stroke: #222222; stroke-opacity: 0.55"/>
    </g>
   </g>
   <g id="text_16">
    <!-- OOS 11년 비교 — 연도별 median -->
    <g transform="translate(287.442539 20.88) scale(0.12 -0.12)">
     <defs>
      <path id="MalgunGothic-32" d="M 306 2244 
Q 306 3350 903 4012 
Q 1500 4675 2531 4675 
Q 3481 4675 4062 4029 
Q 4644 3384 4644 2359 
Q 4644 1256 4056 589 
Q 3469 -78 2456 -78 
Q 1488 -78 897 570 
Q 306 1219 306 2244 
z
M 838 2291 
Q 838 1456 1278 918 
Q 1719 381 2453 381 
Q 3238 381 3677 889 
Q 4116 1397 4116 2284 
Q 4116 3188 3692 3700 
Q 3269 4213 2494 4213 
Q 1741 4213 1289 3670 
Q 838 3128 838 2291 
z
" transform="scale(0.015625)"/>
      <path id="MalgunGothic-3d7" d="M 4884 1063 
L 4884 3122 
L 3181 3122 
L 3181 3525 
L 4884 3525 
L 4884 4178 
L 3181 4178 
L 3181 4581 
L 4884 4581 
L 4884 5466 
L 5350 5466 
L 5350 1063 
L 4884 1063 
z
M 4231 2169 
Q 3628 2016 1075 2016 
L 1075 5088 
L 1544 5088 
L 1544 2425 
L 1938 2425 
Q 3513 2425 4166 2553 
L 4231 2169 
z
M 1663 -359 
L 1663 1409 
L 2131 1409 
L 2131 56 
L 5575 56 
L 5575 -359 
L 1663 -359 
z
" transform="scale(0.015625)"/>
      <path id="MalgunGothic-678" d="M 4884 -563 
L 4884 5466 
L 5350 5466 
L 5350 -563 
L 4884 -563 
z
M 825 1081 
L 825 5013 
L 1294 5013 
L 1294 3469 
L 3244 3469 
L 3244 5013 
L 3713 5013 
L 3713 1081 
L 825 1081 
z
M 3244 3053 
L 1294 3053 
L 1294 1497 
L 3244 1497 
L 3244 3053 
z
" transform="scale(0.015625)"/>
      <path id="MalgunGothic-2ec" d="M 5088 1631 
L 4628 1684 
Q 4716 2581 4716 3597 
L 4716 4475 
L 1131 4475 
L 1131 4897 
L 5197 4897 
L 5197 3597 
Q 5197 2713 5088 1631 
z
M 403 459 
L 403 884 
L 1850 884 
L 1850 2931 
L 2309 2931 
L 2309 884 
L 3378 884 
L 3378 2931 
L 3841 2931 
L 3841 884 
L 5997 884 
L 5997 459 
L 403 459 
z
" transform="scale(0.015625)"/>
      <path id="MalgunGothic-118" d="M 6566 1634 
L 0 1634 
L 0 2031 
L 6566 2031 
L 6566 1634 
z
" transform="scale(0.015625)"/>
      <path id="MalgunGothic-809" d="M 3591 2528 
Q 3134 2041 2413 2041 
Q 1734 2041 1282 2489 
Q 831 2938 831 3647 
Q 831 4369 1284 4811 
Q 1738 5253 2413 5253 
Q 3266 5253 3725 4603 
L 4959 4603 
L 4959 5466 
L 5428 5466 
L 5428 1063 
L 4959 1063 
L 4959 2528 
L 3591 2528 
z
M 2413 4844 
Q 1919 4844 1609 4520 
Q 1300 4197 1300 3647 
Q 1300 3097 1609 2773 
Q 1919 2450 2413 2450 
Q 2916 2450 3228 2775 
Q 3541 3100 3541 3647 
Q 3541 4194 3228 4519 
Q 2916 4844 2413 4844 
z
M 3859 2938 
L 4959 2938 
L 4959 4191 
L 3916 4191 
Q 4000 3931 4000 3647 
Q 4000 3263 3859 2938 
z
M 1703 -378 
L 1703 1478 
L 2169 1478 
L 2169 44 
L 5575 44 
L 5575 -378 
L 1703 -378 
z
" transform="scale(0.015625)"/>
      <path id="MalgunGothic-466" d="M 403 372 
L 403 788 
L 2963 788 
L 2963 2181 
L 1350 2181 
L 1350 4897 
L 5050 4897 
L 5050 4481 
L 1819 4481 
L 1819 2600 
L 5147 2600 
L 5147 2181 
L 3438 2181 
L 3438 788 
L 5997 788 
L 5997 372 
L 403 372 
z
" transform="scale(0.015625)"/>
      <path id="MalgunGothic-637" d="M 1038 2578 
L 1038 5288 
L 1497 5288 
L 1497 4294 
L 3366 4294 
L 3366 5288 
L 3828 5288 
L 3828 4666 
L 4947 4666 
L 4947 5466 
L 5416 5466 
L 5416 2259 
L 4947 2259 
L 4947 3128 
L 3828 3128 
L 3828 2578 
L 1038 2578 
z
M 3828 4263 
L 3828 3525 
L 4947 3525 
L 4947 4263 
L 3828 4263 
z
M 3366 3884 
L 1497 3884 
L 1497 2994 
L 3366 2994 
L 3366 3884 
z
M 1728 -488 
L 1728 947 
L 4953 947 
L 4953 1516 
L 1728 1516 
L 1728 1925 
L 5416 1925 
L 5416 550 
L 2194 550 
L 2194 -72 
L 5581 -72 
L 5581 -488 
L 1728 -488 
z
" transform="scale(0.015625)"/>
      <path id="MalgunGothic-50" d="M 5166 0 
L 4669 0 
L 4669 1884 
Q 4669 2463 4495 2702 
Q 4322 2941 3922 2941 
Q 3584 2941 3342 2623 
Q 3100 2306 3100 1875 
L 3100 0 
L 2606 0 
L 2606 1953 
Q 2606 2941 1844 2941 
Q 1497 2941 1265 2642 
Q 1034 2344 1034 1875 
L 1034 0 
L 538 0 
L 538 3284 
L 1034 3284 
L 1034 2763 
L 1047 2763 
Q 1391 3359 2063 3359 
Q 2381 3359 2636 3176 
Q 2891 2994 2991 2675 
Q 3356 3359 4081 3359 
Q 5166 3359 5166 2022 
L 5166 0 
z
" transform="scale(0.015625)"/>
      <path id="MalgunGothic-48" d="M 3156 1519 
L 828 1519 
Q 844 950 1133 648 
Q 1422 347 1909 347 
Q 2472 347 2934 719 
L 2934 244 
Q 2494 -78 1794 -78 
Q 1100 -78 708 376 
Q 316 831 316 1634 
Q 316 2381 747 2870 
Q 1178 3359 1816 3359 
Q 2453 3359 2804 2942 
Q 3156 2525 3156 1788 
L 3156 1519 
z
M 2644 1956 
Q 2644 2416 2423 2675 
Q 2203 2934 1809 2934 
Q 1438 2934 1169 2667 
Q 900 2400 834 1956 
L 2644 1956 
z
" transform="scale(0.015625)"/>
      <path id="MalgunGothic-47" d="M 3313 0 
L 2822 0 
L 2822 566 
L 2809 566 
Q 2444 -78 1675 -78 
Q 1056 -78 686 364 
Q 316 806 316 1566 
Q 316 2375 728 2867 
Q 1141 3359 1816 3359 
Q 2494 3359 2809 2822 
L 2822 2822 
L 2822 4859 
L 3313 4859 
L 3313 0 
z
M 2822 1978 
Q 2822 2378 2550 2659 
Q 2278 2941 1872 2941 
Q 1384 2941 1101 2577 
Q 819 2213 819 1591 
Q 819 1025 1086 684 
Q 1353 344 1813 344 
Q 2250 344 2536 666 
Q 2822 988 2822 1478 
L 2822 1978 
z
" transform="scale(0.015625)"/>
      <path id="MalgunGothic-4c" d="M 472 4466 
Q 472 4606 565 4701 
Q 659 4797 794 4797 
Q 934 4797 1029 4700 
Q 1125 4603 1125 4466 
Q 1125 4325 1029 4231 
Q 934 4138 794 4138 
Q 659 4138 565 4230 
Q 472 4322 472 4466 
z
M 541 0 
L 541 3284 
L 1034 3284 
L 1034 0 
L 541 0 
z
" transform="scale(0.015625)"/>
      <path id="MalgunGothic-44" d="M 616 3050 
Q 1097 3359 1722 3359 
Q 2866 3359 2866 2147 
L 2866 0 
L 2369 0 
L 2369 516 
L 2350 516 
Q 2009 -78 1341 -78 
Q 859 -78 576 180 
Q 294 438 294 869 
Q 294 1784 1375 1934 
L 2366 2078 
Q 2366 2934 1684 2934 
Q 1084 2934 616 2525 
L 616 3050 
z
M 1563 1559 
Q 1178 1509 993 1371 
Q 809 1234 809 903 
Q 809 653 986 500 
Q 1163 347 1450 347 
Q 1847 347 2106 628 
Q 2366 909 2366 1334 
L 2366 1666 
L 1563 1559 
z
" transform="scale(0.015625)"/>
     </defs>
     <use xlink:href="#MalgunGothic-32"/>
     <use xlink:href="#MalgunGothic-32" transform="translate(77.34375 0)"/>
     <use xlink:href="#MalgunGothic-36" transform="translate(154.6875 0)"/>
     <use xlink:href="#MalgunGothic-3" transform="translate(208.984375 0)"/>
     <use xlink:href="#MalgunGothic-14" transform="translate(244.140625 0)"/>
     <use xlink:href="#MalgunGothic-14" transform="translate(299.21875 0)"/>
     <use xlink:href="#MalgunGothic-3d7" transform="translate(354.296875 0)"/>
     <use xlink:href="#MalgunGothic-3" transform="translate(454.296875 0)"/>
     <use xlink:href="#MalgunGothic-678" transform="translate(489.453125 0)"/>
     <use xlink:href="#MalgunGothic-2ec" transform="translate(589.453125 0)"/>
     <use xlink:href="#MalgunGothic-3" transform="translate(689.453125 0)"/>
     <use xlink:href="#MalgunGothic-118" transform="translate(724.609375 0)"/>
     <use xlink:href="#MalgunGothic-3" transform="translate(827.203125 0)"/>
     <use xlink:href="#MalgunGothic-809" transform="translate(862.359375 0)"/>
     <use xlink:href="#MalgunGothic-466" transform="translate(962.359375 0)"/>
     <use xlink:href="#MalgunGothic-637" transform="translate(1062.359375 0)"/>
     <use xlink:href="#MalgunGothic-3" transform="translate(1162.359375 0)"/>
     <use xlink:href="#MalgunGothic-50" transform="translate(1197.515625 0)"/>
     <use xlink:href="#MalgunGothic-48" transform="translate(1285.5 0)"/>
     <use xlink:href="#MalgunGothic-47" transform="translate(1339.015625 0)"/>
     <use xlink:href="#MalgunGothic-4c" transform="translate(1399.21875 0)"/>
     <use xlink:href="#MalgunGothic-44" transform="translate(1423.828125 0)"/>
     <use xlink:href="#MalgunGothic-51" transform="translate(1475.828125 0)"/>
    </g>
   </g>
  </g>
 </g>
 <defs>
  <clipPath id="p8cf5203c36">
   <rect x="49.721953" y="26.88" width="659.478047" height="294.678047"/>
  </clipPath>
 </defs>
</svg>
