<svg xmlns="http://www.w3.org/2000/svg" width="1068" height="590" viewBox="0 0 1068 590">
<rect width="100%" height="100%" fill="#ffffff"/>
<text x="88" y="32" font-size="22" font-weight="700" fill="#1f2933">공식 6체육관 합산 boxplot</text>
<text x="88" y="56" font-size="13" fill="#52606d">unit: 만원(10,000 KRW), whisker=min/max, box=p25/p75, line=median</text>
<line x1="88" y1="506.0" x2="1032" y2="506.0" stroke="#eef2f7" stroke-width="1"/>
<text x="76" y="510.0" text-anchor="end" font-size="12" fill="#52606d">574</text>
<line x1="88" y1="420.0" x2="1032" y2="420.0" stroke="#eef2f7" stroke-width="1"/>
<text x="76" y="424.0" text-anchor="end" font-size="12" fill="#52606d">611</text>
<line x1="88" y1="334.0" x2="1032" y2="334.0" stroke="#eef2f7" stroke-width="1"/>
<text x="76" y="338.0" text-anchor="end" font-size="12" fill="#52606d">647</text>
<line x1="88" y1="248.0" x2="1032" y2="248.0" stroke="#eef2f7" stroke-width="1"/>
<text x="76" y="252.0" text-anchor="end" font-size="12" fill="#52606d">684</text>
<line x1="88" y1="162.0" x2="1032" y2="162.0" stroke="#eef2f7" stroke-width="1"/>
<text x="76" y="166.0" text-anchor="end" font-size="12" fill="#52606d">721</text>
<line x1="88" y1="76.0" x2="1032" y2="76.0" stroke="#eef2f7" stroke-width="1"/>
<text x="76" y="80.0" text-anchor="end" font-size="12" fill="#52606d">758</text>
<line x1="88" y1="58" x2="88" y2="506" stroke="#9aa5b1" stroke-width="1"/>
<line x1="88" y1="506" x2="1032" y2="506" stroke="#9aa5b1" stroke-width="1"/>
<text x="147.0" y="530.0" text-anchor="middle" font-size="14" fill="#1f2933">TPE</text>
<text x="147.0" y="548.0" text-anchor="middle" font-size="11" fill="#7b8794">n=30</text>
<line x1="147.0" y1="105.7" x2="147.0" y2="167.0" stroke="#2f6fdd" stroke-width="2"/>
<line x1="138.0" y1="105.7" x2="156.0" y2="105.7" stroke="#2f6fdd" stroke-width="2"/>
<line x1="138.0" y1="167.0" x2="156.0" y2="167.0" stroke="#2f6fdd" stroke-width="2"/>
<rect x="124.0" y="127.5" width="46" height="23.6" fill="#2f6fdd" opacity="0.24" stroke="#2f6fdd" stroke-width="2"/>
<line x1="122.0" y1="134.9" x2="172.0" y2="134.9" stroke="#2f6fdd" stroke-width="3"/>
<text x="147.0" y="95.7" text-anchor="middle" font-size="11" fill="#52606d">733</text>
<text x="265.0" y="530.0" text-anchor="middle" font-size="14" fill="#1f2933">GP</text>
<text x="265.0" y="548.0" text-anchor="middle" font-size="11" fill="#7b8794">n=30</text>
<line x1="265.0" y1="147.9" x2="265.0" y2="147.9" stroke="#9a6ad6" stroke-width="2"/>
<line x1="256.0" y1="147.9" x2="274.0" y2="147.9" stroke="#9a6ad6" stroke-width="2"/>
<line x1="256.0" y1="147.9" x2="274.0" y2="147.9" stroke="#9a6ad6" stroke-width="2"/>
<circle cx="265.0" cy="147.9" r="7" fill="#9a6ad6" opacity="0.88"/>
<text x="265.0" y="137.9" text-anchor="middle" font-size="11" fill="#52606d">727</text>
<text x="383.0" y="530.0" text-anchor="middle" font-size="14" fill="#1f2933">NSGA</text>
<text x="383.0" y="548.0" text-anchor="middle" font-size="11" fill="#7b8794">n=30</text>
<line x1="383.0" y1="139.9" x2="383.0" y2="223.7" stroke="#d48a1f" stroke-width="2"/>
<line x1="374.0" y1="139.9" x2="392.0" y2="139.9" stroke="#d48a1f" stroke-width="2"/>
<line x1="374.0" y1="223.7" x2="392.0" y2="223.7" stroke="#d48a1f" stroke-width="2"/>
<rect x="360.0" y="168.0" width="46" height="23.0" fill="#d48a1f" opacity="0.24" stroke="#d48a1f" stroke-width="2"/>
<line x1="358.0" y1="177.8" x2="408.0" y2="177.8" stroke="#d48a1f" stroke-width="3"/>
<text x="383.0" y="129.9" text-anchor="middle" font-size="11" fill="#52606d">714</text>
<text x="501.0" y="530.0" text-anchor="middle" font-size="14" fill="#1f2933">CMA-ES</text>
<text x="501.0" y="548.0" text-anchor="middle" font-size="11" fill="#7b8794">n=30</text>
<line x1="501.0" y1="178.2" x2="501.0" y2="231.5" stroke="#2c9c69" stroke-width="2"/>
<line x1="492.0" y1="178.2" x2="510.0" y2="178.2" stroke="#2c9c69" stroke-width="2"/>
<line x1="492.0" y1="231.5" x2="510.0" y2="231.5" stroke="#2c9c69" stroke-width="2"/>
<rect x="478.0" y="197.4" width="46" height="18.7" fill="#2c9c69" opacity="0.24" stroke="#2c9c69" stroke-width="2"/>
<line x1="476.0" y1="206.1" x2="526.0" y2="206.1" stroke="#2c9c69" stroke-width="3"/>
<text x="501.0" y="168.2" text-anchor="middle" font-size="11" fill="#52606d">702</text>
<text x="619.0" y="530.0" text-anchor="middle" font-size="14" fill="#1f2933">저축왕</text>
<text x="619.0" y="548.0" text-anchor="middle" font-size="11" fill="#7b8794">n=1</text>
<line x1="619.0" y1="376.7" x2="619.0" y2="376.7" stroke="#4a8f9f" stroke-width="2"/>
<line x1="610.0" y1="376.7" x2="628.0" y2="376.7" stroke="#4a8f9f" stroke-width="2"/>
<line x1="610.0" y1="376.7" x2="628.0" y2="376.7" stroke="#4a8f9f" stroke-width="2"/>
<circle cx="619.0" cy="376.7" r="7" fill="#4a8f9f" opacity="0.88"/>
<text x="619.0" y="366.7" text-anchor="middle" font-size="11" fill="#52606d">629</text>
<text x="737.0" y="530.0" text-anchor="middle" font-size="14" fill="#1f2933">어플삭제단</text>
<text x="737.0" y="548.0" text-anchor="middle" font-size="11" fill="#7b8794">n=300</text>
<line x1="737.0" y1="262.0" x2="737.0" y2="476.3" stroke="#58606a" stroke-width="2"/>
<line x1="728.0" y1="262.0" x2="746.0" y2="262.0" stroke="#58606a" stroke-width="2"/>
<line x1="728.0" y1="476.3" x2="746.0" y2="476.3" stroke="#58606a" stroke-width="2"/>
<rect x="714.0" y="353.3" width="46" height="70.6" fill="#58606a" opacity="0.24" stroke="#58606a" stroke-width="2"/>
<line x1="712.0" y1="389.8" x2="762.0" y2="389.8" stroke="#58606a" stroke-width="3"/>
<text x="737.0" y="252.0" text-anchor="middle" font-size="11" fill="#52606d">623</text>
<text x="855.0" y="530.0" text-anchor="middle" font-size="14" fill="#1f2933">성실이</text>
<text x="855.0" y="548.0" text-anchor="middle" font-size="11" fill="#7b8794">n=1</text>
<line x1="855.0" y1="393.6" x2="855.0" y2="393.6" stroke="#c44545" stroke-width="2"/>
<line x1="846.0" y1="393.6" x2="864.0" y2="393.6" stroke="#c44545" stroke-width="2"/>
<line x1="846.0" y1="393.6" x2="864.0" y2="393.6" stroke="#c44545" stroke-width="2"/>
<circle cx="855.0" cy="393.6" r="7" fill="#c44545" opacity="0.88"/>
<text x="855.0" y="383.6" text-anchor="middle" font-size="11" fill="#52606d">622</text>
<text x="973.0" y="530.0" text-anchor="middle" font-size="14" fill="#1f2933">돼지저금통</text>
<text x="973.0" y="548.0" text-anchor="middle" font-size="11" fill="#7b8794">n=1</text>
<line x1="973.0" y1="444.6" x2="973.0" y2="444.6" stroke="#777777" stroke-width="2"/>
<line x1="964.0" y1="444.6" x2="982.0" y2="444.6" stroke="#777777" stroke-width="2"/>
<line x1="964.0" y1="444.6" x2="982.0" y2="444.6" stroke="#777777" stroke-width="2"/>
<circle cx="973.0" cy="444.6" r="7" fill="#777777" opacity="0.88"/>
<text x="973.0" y="434.6" text-anchor="middle" font-size="11" fill="#52606d">600</text>
</svg>